<svg width="36" height="38" viewBox="0 0 36 38" fill="none" xmlns="http://www.w3.org/2000/svg">
<g filter="url(#filter0_d_56_149)">
<path fill-rule="evenodd" clip-rule="evenodd" d="M9.89577 28.7409C10.2064 29.0202 10.4208 29.2208 11.0835 29.849C11.7326 30.4643 12.0465 30.755 12.3335 30.9982C12.4532 31.0989 12.5552 31.3679 12.5957 31.7679C12.6289 32.097 12.6174 32.464 12.577 32.8177C12.5631 32.9401 12.5496 33.0283 12.5419 33.0703C12.4554 33.5422 12.8157 33.9781 13.2964 33.983C13.7289 33.9873 14.0622 33.9927 14.9444 34.0084C15.1651 34.0123 15.1651 34.0123 15.3866 34.0161C17.7845 34.0573 19.0092 34.046 19.8882 33.9357C20.8278 33.8178 21.7954 32.6854 22.6318 31.2645C23.3406 32.5218 24.3237 33.7496 25.3164 33.9092C25.6318 33.9595 26.0133 33.9751 26.4555 33.9649C26.7852 33.9574 27.1341 33.9357 27.4862 33.9043C27.7517 33.8806 27.9633 33.8568 28.0897 33.8404C28.5565 33.78 28.862 33.3215 28.7373 32.8685C28.7103 32.7706 28.667 32.5911 28.6234 32.365C28.5728 32.1029 28.5362 31.847 28.5196 31.6138C28.509 31.466 28.5069 31.3321 28.5136 31.2164C28.5253 31.0148 28.5289 30.9018 28.5346 30.6409C28.5367 30.5438 28.5367 30.5438 28.5396 30.4588C28.5506 30.1806 28.588 29.9164 28.7092 29.3404C28.7612 29.0904 29.0136 28.612 29.411 28.0199C29.5294 27.8436 29.6588 27.6595 29.7974 27.4693C30.0603 27.1088 30.3432 26.7446 30.6263 26.396C30.7959 26.1872 30.9269 26.031 31 25.9462C31.6121 25.0709 32.2649 23.6379 32.5048 22.8002C32.735 21.995 32.9192 20.5121 33.0324 19.0546C33.0944 18.2277 33.1174 17.5612 33.1174 16.5157C33.1175 16.3323 33.1175 16.3323 33.1178 16.1808C33.1184 15.9328 33.1184 15.839 33.1176 15.7231C33.1154 15.4063 33.1062 15.0923 33.0755 14.2916C33.0095 12.6135 32.088 11.5285 30.7301 11.3192C29.5749 11.1412 28.1687 12.0988 28.1687 12.0988C28.1687 12.0988 27.8557 11.0205 27.6443 10.6876C27.3009 10.1527 26.4164 9.47109 25.7402 9.3383C25.0448 9.20353 24.2204 9.21843 23.4633 9.35206C22.8004 9.47046 22.14 10.0612 21.758 10.6984C21.4847 11.153 21.7417 10.6743 21.4684 10.2041C21.09 9.55639 20.2091 8.97642 19.3702 8.80523C18.6593 8.65854 17.8449 8.71441 17.1011 8.93504C16.1441 9.22042 15.9918 9.94718 15.9537 9.7391C15.8264 9.04148 15.8147 9.08733 15.7354 8.58968C15.4407 6.74317 15.111 5.46554 14.611 4.35066C14.6397 4.41475 14.4278 3.93373 14.3507 3.76786C14.2172 3.48065 14.0839 3.22069 13.9374 2.97066C13.4858 2.20001 12.9683 1.623 12.319 1.29521C11.1914 0.725353 9.50129 1.00268 8.70017 1.93592C7.90459 2.86336 7.77194 4.414 7.9723 6.33284C8.04881 7.07784 8.31699 8.43796 8.56016 9.44335C8.64615 9.7923 8.72148 10.1105 8.85965 10.6984C8.88341 10.7984 8.88341 10.7984 8.90738 10.8984C9.01428 11.3433 9.10801 11.7094 9.21991 12.1111C9.20817 12.0692 9.42041 12.8208 9.46561 12.9871C9.48065 13.0426 9.48065 13.0426 9.49554 13.0984C9.57992 13.4156 9.66241 13.7575 9.79128 14.3283C9.86181 14.6421 9.93063 14.9773 9.99795 15.3327C10.1815 16.3019 10.1824 16.1001 10.0057 15.8934C9.88363 15.7506 9.76881 15.621 9.65788 15.5015C9.45169 15.2793 9.26214 15.0956 9.0822 14.9491C7.77111 13.8785 6.96773 13.4055 5.86477 13.3016C4.05558 13.1281 2.33863 14.4035 2.08046 16.1248C1.92169 17.1802 1.97284 17.666 2.46204 18.5986C2.73125 19.1026 3.18663 19.7112 4.03628 20.7588C4.08828 20.8229 4.08828 20.8229 4.14024 20.8868C5.18318 22.1694 5.29679 22.3119 5.54478 22.6703C6.21511 23.6411 7.84694 26.4285 8.14358 26.8027L9.89577 28.7409Z" fill="black"/>
<path fill-rule="evenodd" clip-rule="evenodd" d="M5.3438 19.9121C5.29236 19.8488 5.29236 19.8488 5.24107 19.7856C4.46134 18.8242 4.03377 18.2527 3.83251 17.876C3.51669 17.2739 3.4995 17.1107 3.61332 16.3541C3.7471 15.4621 4.71241 14.7451 5.7178 14.8415C6.41345 14.907 7.02122 15.2649 8.10149 16.147C8.21845 16.2422 8.35947 16.3789 8.52078 16.5527C8.61619 16.6554 8.71738 16.7697 8.82665 16.8975C8.99076 17.0894 9.54384 17.7648 9.46238 17.6665C9.58254 17.8108 9.66847 17.9225 9.76663 18.0594C9.96112 18.3364 10.0705 18.4903 10.2187 18.6875C10.1492 18.5949 10.6625 19.303 10.7712 19.4065C11.3469 19.955 12.1807 19.4931 12.1285 18.7621C12.1198 18.6401 12.091 18.5082 12.031 18.2781C11.7936 16.5884 11.7105 16.0461 11.521 15.0453C11.4505 14.6736 11.3783 14.3214 11.3035 13.9889C11.1705 13.4 11.0837 13.0401 10.9936 12.7014C10.9776 12.6415 10.9776 12.6415 10.9615 12.5821C10.914 12.4072 10.6986 11.6443 10.7129 11.6955C10.6068 11.3146 10.5175 10.9659 10.4147 10.5377C10.3913 10.4402 10.3913 10.4402 10.3679 10.342C10.2305 9.75728 10.1533 9.43088 10.0661 9.07714C9.83878 8.13731 9.58196 6.8348 9.51407 6.1738C9.35811 4.68009 9.46573 3.42204 9.87744 2.94209C10.1989 2.56761 11.11 2.41811 11.6191 2.67536C11.9519 2.84342 12.2846 3.21432 12.5994 3.75151C12.7185 3.95481 12.8303 4.17281 12.9447 4.41889C13.014 4.56792 13.2194 5.03428 13.1963 4.98271C13.6309 5.95193 13.9295 7.10887 14.2046 8.83281C14.286 9.34361 14.3868 9.92229 14.5159 10.6303C14.5543 10.8402 14.5543 10.8402 14.5929 11.0493C15.2158 14.4221 15.1702 14.1665 15.1791 14.4355C15.2118 15.4168 16.6632 15.4398 16.7271 14.46C16.7473 14.1493 16.7401 13.8719 16.7042 13.0752C16.6991 12.9624 16.6991 12.9624 16.6942 12.8501C16.6628 12.1161 16.6646 11.6938 16.7081 11.4537C16.7873 11.016 17.1811 10.5256 17.5437 10.4175C18.053 10.2664 18.611 10.2281 19.058 10.3204C19.4859 10.4077 19.9852 10.7364 20.1284 10.9817C20.3011 11.2787 20.4491 11.7311 20.5626 12.292C20.6541 12.7447 20.7172 13.2303 20.7615 13.7486C20.7753 13.9099 20.7843 14.0345 20.7981 14.2406C20.804 14.3269 20.804 14.3269 20.8099 14.3981C20.8132 14.4338 20.8132 14.4338 20.8213 14.4902C20.8275 14.5298 20.8275 14.5298 20.8571 14.6299C20.8721 14.9142 20.8721 14.9142 22.0161 15.0196C22.3577 14.6075 22.3577 14.6075 22.3484 14.5352C22.4044 14.2911 22.4386 14.019 22.4874 13.5078C22.5186 13.1755 22.5343 13.0121 22.5527 12.8426C22.6287 12.1411 22.7253 11.6954 22.8431 11.4995C22.9892 11.2558 23.504 10.9162 23.7348 10.875C24.3146 10.7727 24.9513 10.7612 25.4429 10.8564C25.6655 10.9001 26.2086 11.3187 26.3372 11.5189C26.6012 11.9346 26.8579 13.2749 27.0025 14.6047C26.9797 14.6919 26.9797 14.6919 27.3347 15.1978C28.5547 15.059 28.5547 15.059 28.5204 14.8392C28.5526 14.7608 28.5782 14.6702 28.6145 14.5295C28.7017 14.2001 28.7595 14.0089 28.8456 13.7945C28.9051 13.6463 28.9679 13.5195 29.0323 13.4186C29.2817 13.0269 29.9273 12.7607 30.4935 12.848C31.1017 12.9417 31.4892 13.398 31.5266 14.3515C31.5567 15.1361 31.5656 15.4378 31.5677 15.7338C31.5684 15.8431 31.5684 15.9308 31.5678 16.1775C31.5675 16.3299 31.5675 16.3299 31.5674 16.5157C31.5674 17.5241 31.5457 18.1523 31.4869 18.937C31.3822 20.2844 31.2056 21.7066 31.0143 22.3754C30.8191 23.0573 30.2363 24.3366 29.7749 25.002C29.7421 25.0336 29.6017 25.2009 29.4221 25.422C29.1233 25.79 28.8243 26.1749 28.5442 26.5591C28.3942 26.7647 28.2534 26.9651 28.1232 27.159C27.6196 27.9093 27.2965 28.5219 27.1919 29.0241C27.0546 29.6767 27.0056 30.0229 26.9908 30.3981C26.9872 30.5044 26.9872 30.5044 26.9849 30.6074C26.9796 30.8509 26.9765 30.9492 26.9662 31.1273C26.9554 31.3143 26.9585 31.5133 26.9735 31.7236C26.9949 32.0247 26.9735 32.4361 26.9735 32.4361C26.9735 32.4361 26.7117 32.4117 26.4199 32.4184C26.0633 32.4266 25.7668 32.4145 25.562 32.3818C25.2663 32.3343 24.468 31.3373 24.0592 30.5605C23.4345 29.3717 21.918 29.4294 21.2964 30.4793C20.7357 31.4317 19.9331 32.371 19.6948 32.4009C18.9206 32.498 17.7218 32.5091 15.4132 32.4695C15.1925 32.4657 15.1925 32.4657 14.972 32.4617C14.0856 32.446 14.1197 32.5953 14.1378 32.4361C14.1896 31.9818 14.1838 32.0669 14.1378 31.6126C14.0608 30.8508 13.8252 30.2297 13.3344 29.8171C13.0804 29.6019 12.7767 29.3206 12.1667 28.7423C11.4698 28.0816 11.2515 27.8774 10.9825 27.6415L9.32647 25.8044C9.14469 25.5724 7.54909 22.8469 6.82066 21.792C6.53731 21.3824 6.43131 21.2495 5.3438 19.9121ZM24.9952 19.9198V27.054C24.9952 28.0853 26.5452 28.0853 26.5452 27.054V19.9198C26.5452 18.8886 24.9952 18.8886 24.9952 19.9198ZM20.7965 19.9186L20.8296 27.0817C20.8344 28.1129 22.3844 28.1058 22.3796 27.0746L22.3465 19.9115C22.3418 18.8803 20.7918 18.8874 20.7965 19.9186ZM18.2977 27.0416L18.2543 19.9755C18.248 18.9443 16.698 18.9538 16.7043 19.985L16.7477 27.0511C16.7541 28.0823 18.304 28.0729 18.2977 27.0416Z" fill="white"/>
</g>
<defs>
<filter id="filter0_d_56_149" x="0" y="0" width="35.1183" height="37.0381" filterUnits="userSpaceOnUse" color-interpolation-filters="sRGB">
<feFlood flood-opacity="0" result="BackgroundImageFix"/>
<feColorMatrix in="SourceAlpha" type="matrix" values="0 0 0 0 0 0 0 0 0 0 0 0 0 0 0 0 0 0 127 0" result="hardAlpha"/>
<feOffset dy="1"/>
<feGaussianBlur stdDeviation="1"/>
<feColorMatrix type="matrix" values="0 0 0 0 0 0 0 0 0 0 0 0 0 0 0 0 0 0 0.298656 0"/>
<feBlend mode="normal" in2="BackgroundImageFix" result="effect1_dropShadow_56_149"/>
<feBlend mode="normal" in="SourceGraphic" in2="effect1_dropShadow_56_149" result="shape"/>
</filter>
</defs>
</svg>
